<svg width="54" height="55" viewBox="0 0 54 55" fill="none" xmlns="http://www.w3.org/2000/svg">
<g id="facebook-1--media-facebook-social" clip-path="url(#clip0_10_35)">
<g id="facebook-1--media-facebook-social_2">
<path id="Vector" d="M1.92847 48.7142V6.28567C1.92847 5.26268 2.33484 4.28161 3.0582 3.55826C3.78155 2.8349 4.76262 2.42853 5.78561 2.42853H48.2142C49.2371 2.42853 50.2184 2.8349 50.9416 3.55826C51.6648 4.28161 52.0713 5.26268 52.0713 6.28567V48.7142C52.0713 49.7372 51.6648 50.7184 50.9416 51.4416C50.2184 52.1648 49.2371 52.5714 48.2142 52.5714H36.6428V34.2885H39.3813C40.0054 34.2885 40.6037 34.0406 41.0449 33.5994C41.4862 33.1582 41.7342 32.5597 41.7342 31.9357V28.9657C41.7342 28.6567 41.6732 28.3507 41.5552 28.0653C41.4368 27.7798 41.2636 27.5204 41.0449 27.3019C40.8266 27.0835 40.567 26.9102 40.2816 26.7919C39.9962 26.6737 39.6903 26.6128 39.3813 26.6128H36.797V22.9871C36.797 19.7471 38.2628 19.7471 39.7285 19.7471H41.6185C41.929 19.7599 42.2383 19.7043 42.5249 19.5844C42.8115 19.4644 43.0684 19.2829 43.277 19.0528C43.5011 18.8394 43.6786 18.5818 43.7981 18.2964C43.9177 18.0108 43.9767 17.7037 43.9713 17.3942V14.54C43.9817 14.2259 43.9301 13.9128 43.819 13.6188C43.7083 13.3246 43.5409 13.0553 43.3256 12.826C43.1108 12.5968 42.8528 12.4121 42.5666 12.2826C42.2804 12.1531 41.971 12.0813 41.657 12.0714H37.2213C35.9271 12.0227 34.6377 12.2556 33.4421 12.7539C32.2467 13.2522 31.1736 14.0042 30.2971 14.9577C29.4206 15.9112 28.7615 17.0437 28.3654 18.2768C27.9692 19.5099 27.8455 20.8143 28.0028 22.1V26.6128H25.5342C25.222 26.6077 24.9119 26.6648 24.6219 26.7807C24.332 26.8967 24.068 27.0692 23.8455 27.2882C23.6229 27.5072 23.4461 27.7683 23.3255 28.0563C23.2048 28.3443 23.1427 28.6534 23.1428 28.9657V31.9357C23.1427 32.2479 23.2048 32.5571 23.3255 32.8451C23.4461 33.1331 23.6229 33.3942 23.8455 33.6132C24.068 33.8322 24.332 34.0047 24.6219 34.1206C24.9119 34.2366 25.222 34.2937 25.5342 34.2885H28.0028V52.5714H5.78561C4.76262 52.5714 3.78155 52.1648 3.0582 51.4416C2.33484 50.7184 1.92847 49.7372 1.92847 48.7142Z" stroke="black" stroke-width="3.85714" stroke-linecap="round" stroke-linejoin="round"/>
</g>
</g>
<defs>
<clipPath id="clip0_10_35">
<rect width="54" height="54" fill="white" transform="translate(0 0.5)"/>
</clipPath>
</defs>
</svg>
