<svg width="60" height="61" viewBox="0 0 60 61" fill="none" xmlns="http://www.w3.org/2000/svg">
<g id="instagram">
<g id="instagram_2">
<g id="Group 4546">
<path id="Vector" d="M44.2843 16.1173C43.6925 16.1173 43.2129 15.6376 43.2129 15.0459C43.2129 14.4542 43.6925 13.9745 44.2843 13.9745" stroke="black" stroke-width="4.28571" stroke-linecap="round" stroke-linejoin="round"/>
<path id="Vector_2" d="M44.2842 16.1173C44.876 16.1173 45.3556 15.6376 45.3556 15.0459C45.3556 14.4542 44.876 13.9745 44.2842 13.9745" stroke="black" stroke-width="4.28571" stroke-linecap="round" stroke-linejoin="round"/>
</g>
<path id="Rectangle 2" d="M3.67798 15.206C3.67798 9.1159 8.61501 4.17883 14.7052 4.17883H44.1112C50.2012 4.17883 55.1384 9.1159 55.1384 15.206V44.612C55.1384 50.702 50.2012 55.6391 44.1112 55.6391H14.7052C8.61501 55.6391 3.67798 50.702 3.67798 44.612V15.206Z" stroke="black" stroke-width="4.28571" stroke-linecap="round" stroke-linejoin="round"/>
<path id="Ellipse 11" d="M29.4076 40.8372C35.4433 40.8372 40.3361 35.9443 40.3361 29.9086C40.3361 23.8729 35.4433 18.98 29.4076 18.98C23.3719 18.98 18.479 23.8729 18.479 29.9086C18.479 35.9443 23.3719 40.8372 29.4076 40.8372Z" stroke="black" stroke-width="4.28571" stroke-linecap="round" stroke-linejoin="round"/>
</g>
</g>
</svg>
